<svg id="cart"
     xmlns="http://www.w3.org/2000/svg"
     viewBox="0 0 18 15">
    <title>SHOPPING CART</title>
    <path d="M17.726,3.6628l0.00126,0.0006l-2.4749,5.49975h-0.00011c-0.12211,0.27111 -0.38612,0.46429 -0.6974,0.48453l-7.12761,0.47502l0.41176,1.17659h7.76104c0.91118,0 1.64989,0.73918 1.64989,1.65055c0,0.91136 -0.73872,1.64979 -1.64989,1.64979c-0.91129,0 -1.65012,-0.73843 -1.65012,-1.64979h-7.69993c0,0.91136 -0.73872,1.64979 -1.65001,1.64979c-0.91129,0 -1.65001,-0.73843 -1.65001,-1.64979c0,-0.91136 0.73872,-1.65055 1.65001,-1.65055h1.49094l-3.17619,-9.07468h-1.88976c-0.45559,0 -0.825,-0.36959 -0.825,-0.82497c0,-0.45538 0.36942,-0.82497 0.825,-0.82497h2.47501c0.35992,0 0.66296,0.23184 0.77557,0.55371l0.00309,-0.00121l0.48042,1.37279h12.21588c0.4557,0 0.825,0.36899 0.825,0.82497c0,0.12038 -0.02735,0.23411 -0.07393,0.33787zM5.33651,4.14975l1.52515,4.35715l7.08927,-0.47275l1.74809,-3.8844z"></path>
</svg>