<svg id="facebook"  xmlns="http://www.w3.org/2000/svg"
     viewBox="0 0 12 26">
    <title>facebook</title>
    <path d="M12.08929,0.19885c0,1.47655 0,4.12108 0,4.12108v0c0,0 -3.03761,-0.30268 -3.79829,0.86137c-0.41588,0.63602 -0.16903,2.49923 -0.20588,3.83728c1.32603,0 2.70332,0 4.02924,0c-0.34081,1.5646 -0.58468,2.62444 -0.83508,3.97865c-1.1475,0 -3.21671,0 -3.21671,0v0v12.80366v0c0,0 -3.79681,0 -5.58174,0c0.00114,-3.94693 -0.0008,-8.55208 0,-12.75351c-0.86712,0 -1.50822,0 -2.37511,0c0,-1.47594 0,-2.55179 0,-4.02879c0.84126,0 1.50719,0 2.3489,0c0.12039,-2.94555 0.16582,-5.86391 1.62895,-7.34982c1.64463,-1.67063 3.21304,-1.4699 8.00571,-1.4699z"></path>
</svg>