<svg aria-hidden="true" style="position: absolute; width: 0; height: 0; overflow: hidden;" version="1.1" xmlns="http://www.w3.org/2000/svg" xmlns:xlink="http://www.w3.org/1999/xlink">
<defs>
<symbol id="icon-cart" viewBox="0 0 32 32">
<path d="M31.513 9.178l0.002 0.001-4.4 9.777c-0.217 0.482-0.686 0.825-1.24 0.861l-12.671 0.844 0.732 2.092h13.797c1.62 0 2.933 1.314 2.933 2.934s-1.313 2.933-2.933 2.933c-1.62 0-2.934-1.313-2.934-2.933h-13.689c0 1.62-1.313 2.933-2.933 2.933s-2.933-1.313-2.933-2.933c0-1.62 1.313-2.934 2.933-2.934h2.651l-5.647-16.133h-3.36c-0.81 0-1.467-0.657-1.467-1.467s0.657-1.467 1.467-1.467h4.4c0.64 0 1.179 0.412 1.379 0.984l0.005-0.002 0.854 2.441h21.717c0.81 0 1.467 0.656 1.467 1.467 0 0.214-0.049 0.416-0.131 0.601zM9.487 10.044l2.711 7.746 12.603-0.84 3.108-6.906z"></path>
</symbol>
<symbol id="icon-facebook" viewBox="0 0 15 32">
<path d="M14.879 0.245c0 1.817 0 5.072 0 5.072v0c0 0-3.739-0.373-4.675 1.060-0.512 0.783-0.208 3.076-0.253 4.723 1.632 0 3.327 0 4.959 0-0.419 1.926-0.72 3.23-1.028 4.897-1.412 0-3.959 0-3.959 0v0 15.758c0 0-4.673 0-6.87 0 0.001-4.858-0.001-10.526 0-15.697-1.067 0-1.856 0-2.923 0 0-1.817 0-3.141 0-4.959 1.035 0 1.855 0 2.891 0 0.148-3.625 0.204-7.217 2.005-9.046 2.024-2.056 3.954-1.809 9.853-1.809z"></path>
</symbol>
<symbol id="icon-instagram" viewBox="0 0 32 32">
<path d="M27.938 31.753h-23.631c-2.175 0-3.938-1.764-3.938-3.939v-23.631c0-2.175 1.763-3.939 3.938-3.939h23.631c2.175 0 3.939 1.764 3.939 3.939v23.631c0 2.175-1.763 3.939-3.939 3.939zM16.123 9.894c-2.456 0-4.568 1.454-5.536 3.545h-0.005c-0.010 0.022-0.017 0.046-0.027 0.067-0.058 0.129-0.109 0.262-0.158 0.395-0.024 0.065-0.049 0.127-0.070 0.191-0.045 0.137-0.082 0.277-0.117 0.418-0.017 0.066-0.036 0.13-0.051 0.197-0.032 0.149-0.054 0.3-0.075 0.453-0.008 0.062-0.021 0.122-0.028 0.184-0.023 0.215-0.036 0.433-0.036 0.654 0 3.372 2.733 6.104 6.105 6.104s6.105-2.733 6.105-6.104c0-0.221-0.013-0.439-0.036-0.654-0.007-0.062-0.020-0.123-0.028-0.184-0.021-0.153-0.043-0.304-0.075-0.453-0.015-0.067-0.034-0.131-0.051-0.197-0.035-0.141-0.072-0.281-0.117-0.418-0.021-0.065-0.047-0.127-0.070-0.191-0.049-0.133-0.1-0.266-0.158-0.395-0.010-0.022-0.017-0.045-0.027-0.067h-0.006c-0.969-2.091-3.080-3.545-5.536-3.545zM28.332 5.365c0-0.87-0.705-1.575-1.575-1.575h-3.151c-0.87 0-1.575 0.705-1.575 1.575v3.151c0 0.87 0.705 1.575 1.575 1.575h3.151c0.87 0 1.575-0.705 1.575-1.575zM28.332 13.439h-2.904c0.224 0.816 0.344 1.674 0.344 2.56 0 5.33-4.32 9.649-9.649 9.649s-9.649-4.319-9.649-9.649c0-0.886 0.12-1.745 0.344-2.56h-2.904v13.194c0 0.871 0.705 1.576 1.575 1.576h21.268c0.87 0 1.575-0.705 1.575-1.576z"></path>
</symbol>
<symbol id="icon-pinterest" viewBox="0 0 25 32">
<path d="M9.909 20.743c-0.257 1.026-0.516 2.1-0.785 3.151-0.265 1.036-0.498 2.087-0.883 3.039-0.639 1.577-1.45 3.101-2.515 4.334-0.707 0.821-0.557 0.493-0.77 0.449-0.162-0.034-0.177-0.193-0.209-0.424-0.173-1.254-0.055-2.702 0.009-4.11 0.073-1.604 0.411-2.939 0.724-4.272 0.596-2.54 1.165-5.030 1.766-7.586 0.040-0.17 0.148-0.451 0.111-0.548-0.273-0.71-0.45-1.348-0.527-2.093-0.090-0.856-0.021-1.654 0.172-2.392 0.34-1.302 1.123-2.456 2.331-2.878 0.768-0.266 1.618-0.146 2.135 0.163 0.532 0.318 0.897 0.82 1.067 1.532 0.182 0.758 0.048 1.663-0.098 2.329-0.329 1.499-0.76 2.625-1.153 4.073-0.195 0.718-0.415 1.455-0.233 2.23 0.167 0.712 0.538 1.202 1.043 1.569 0.524 0.381 1.144 0.59 1.999 0.56 1.511-0.053 2.561-1.019 3.263-1.93 1.123-1.458 1.803-3.426 2.061-5.768 0.083-0.755 0.144-1.623 0.086-2.479-0.107-1.58-0.602-2.851-1.386-3.836-0.746-0.938-1.805-1.685-3.092-2.105-1.276-0.417-3.043-0.555-4.613-0.287-2.852 0.489-4.864 2.11-6.048 4.348-0.621 1.172-1.030 2.52-1.030 4.197 0 1.293 0.319 2.295 0.834 3.077 0.163 0.248 0.404 0.452 0.564 0.735 0.227 0.401-0.035 0.998-0.147 1.433-0.135 0.523-0.149 1.246-0.76 1.258-0.253 0.004-0.571-0.18-0.785-0.299-1.606-0.888-2.581-2.502-2.981-4.596-0.243-1.272-0.243-2.756 0-3.986 0.234-1.189 0.671-2.287 1.153-3.177 1.002-1.849 2.47-3.328 4.257-4.385 1.374-0.813 2.924-1.382 4.809-1.657 0.626-0.092 1.273-0.129 1.975-0.162 2.053-0.097 3.919 0.368 5.324 0.996 1.483 0.663 2.667 1.546 3.668 2.641 1.031 1.126 1.782 2.436 2.258 4.073 0.248 0.852 0.489 1.763 0.489 2.815 0 1.056-0.223 1.985-0.379 2.915-0.583 3.481-2.239 6.327-4.723 7.948-0.603 0.392-1.331 0.755-2.159 0.996-0.821 0.239-1.757 0.418-2.76 0.349-0.974-0.067-1.771-0.332-2.441-0.71-0.665-0.376-1.224-0.836-1.62-1.532z"></path>
</symbol>
<symbol id="icon-search" viewBox="0 0 32 32">
<path d="M31.644 28.711c0 1.62-1.313 2.933-2.933 2.933-0.81 0-1.544-0.328-2.074-0.859l-8.597-8.597c-1.746 1.032-3.776 1.634-5.951 1.634-6.48 0-11.733-5.253-11.733-11.733s5.253-11.733 11.733-11.733 11.733 5.254 11.733 11.733c0 2.175-0.602 4.205-1.634 5.951l8.597 8.597c0.531 0.531 0.859 1.264 0.859 2.075zM12.089 3.288c-4.86 0-8.8 3.94-8.8 8.8s3.94 8.8 8.8 8.8c4.86 0 8.8-3.94 8.8-8.8s-3.94-8.8-8.8-8.8z"></path>
</symbol>
<symbol id="icon-twitter" viewBox="0 0 32 32">
<path d="M21.554 3.201c2.504-0.045 3.836 0.868 5.109 2.028 1.080-0.092 2.485-0.696 3.312-1.116 0.268-0.146 0.536-0.294 0.804-0.439-0.472 1.276-1.113 2.276-2.097 3.034-0.219 0.168-0.436 0.396-0.71 0.503 0 0.004 0 0.010 0 0.015 1.403-0.014 2.56-0.647 3.659-0.99 0 0.005 0 0.010 0 0.016-0.577 0.917-1.358 1.848-2.192 2.515-0.336 0.267-0.673 0.534-1.009 0.801 0.018 1.486-0.022 2.903-0.3 4.152-1.614 7.255-5.892 12.181-12.663 14.291-2.431 0.758-6.361 1.069-9.146 0.377-1.381-0.343-2.629-0.73-3.8-1.241-0.65-0.285-1.253-0.593-1.829-0.944-0.189-0.115-0.378-0.23-0.568-0.345 0.628 0.019 1.363 0.192 2.066 0.078 0.636-0.103 1.259-0.076 1.845-0.204 1.462-0.321 2.761-0.745 3.879-1.4 0.542-0.317 1.365-0.689 1.751-1.147-0.726 0.012-1.384-0.156-1.924-0.346-2.091-0.738-3.308-2.096-4.1-4.135 0.634 0.070 2.459 0.235 2.886-0.125-0.798-0.044-1.565-0.506-2.113-0.849-1.682-1.053-3.054-2.818-3.044-5.534 0.221 0.105 0.442 0.21 0.662 0.314 0.423 0.178 0.852 0.274 1.356 0.378 0.213 0.044 0.639 0.169 0.883 0.078-0.011 0-0.021 0-0.032 0-0.325-0.378-0.856-0.631-1.183-1.037-1.079-1.341-2.091-3.405-1.451-5.864 0.162-0.624 0.42-1.174 0.694-1.682 0.010 0.005 0.021 0.010 0.032 0.015 0.126 0.263 0.406 0.456 0.583 0.676 0.551 0.683 1.231 1.298 1.924 1.839 2.361 1.846 4.486 2.981 7.901 3.82 0.866 0.214 1.867 0.376 2.902 0.378-0.291-0.847-0.197-2.215 0.032-3.035 0.575-2.059 1.825-3.543 3.659-4.339 0.438-0.191 0.925-0.329 1.435-0.441 0.263-0.031 0.526-0.063 0.788-0.094z"></path>
</symbol>
</defs>
</svg>
