<svg id="instagram"
     xmlns="http://www.w3.org/2000/svg"
     viewBox="0 0 26 26">
    <title>instagram</title>
    <path d="M22.69989,25.79967h-19.19998c-1.7672,0 -3.2,-1.4329 -3.2,-3.2002v-19.19982c0,-1.7673 1.4328,-3.2002 3.2,-3.2002h19.19998c1.76743,0 3.20011,1.4329 3.20011,3.2002v19.19982c0,1.7673 -1.43269,3.2002 -3.20011,3.2002zM13.10001,8.03924c-1.99562,0 -3.7112,1.18142 -4.49833,2.88015h-0.00446c-0.00824,0.01797 -0.01385,0.037 -0.02186,0.05483c-0.04715,0.10497 -0.08881,0.21281 -0.12863,0.32126c-0.01911,0.05256 -0.0396,0.10316 -0.05699,0.15557c-0.03651,0.11147 -0.06649,0.22535 -0.09521,0.33984c-0.0135,0.05362 -0.02953,0.10603 -0.04131,0.16025c-0.02598,0.12098 -0.04417,0.24378 -0.06123,0.36778c-0.00687,0.05014 -0.0174,0.09893 -0.02277,0.14968c-0.01865,0.1746 -0.0293,0.35162 -0.0293,0.53105c0,2.73938 2.22073,4.95964 4.9601,4.95964c2.73926,0 4.95998,-2.22026 4.95998,-4.95964c0,-0.17943 -0.01064,-0.35645 -0.0293,-0.53105c-0.00538,-0.05075 -0.01591,-0.09953 -0.02277,-0.14968c-0.01705,-0.124 -0.03525,-0.2468 -0.06123,-0.36778c-0.01179,-0.05422 -0.02781,-0.10663 -0.04131,-0.16025c-0.02872,-0.11449 -0.05871,-0.22837 -0.09521,-0.33984c-0.0174,-0.05241 -0.03788,-0.10301 -0.05699,-0.15557c-0.03983,-0.10845 -0.08148,-0.21629 -0.12863,-0.32126c-0.00801,-0.01782 -0.01362,-0.03685 -0.02186,-0.05483h-0.00446c-0.78712,-1.69873 -2.50271,-2.88015 -4.49821,-2.88015zM23.01998,4.35935c0,-0.70686 -0.57312,-1.27975 -1.28002,-1.27975h-2.56004c-0.7069,0 -1.27991,0.57289 -1.27991,1.27975v2.56055c0,0.70701 0.57301,1.27975 1.27991,1.27975h2.56004c0.7069,0 1.28002,-0.57274 1.28002,-1.27975zM23.01998,10.91939h-2.35966c0.18208,0.66276 0.27969,1.36025 0.27969,2.08025c0,4.33026 -3.51013,7.83979 -7.84,7.83979c-4.32999,0 -7.84,-3.50952 -7.84,-7.83979c0,-0.72 0.09762,-1.41749 0.27958,-2.08025h-2.35966v10.71993c0,0.70746 0.57312,1.28035 1.28002,1.28035h17.28001c0.7069,0 1.28002,-0.57289 1.28002,-1.28035z"></path>
</svg>