<svg id="pinterest" xmlns="http://www.w3.org/2000/svg"
     viewBox="0 0 20 26">
    <title>pinterest</title>
    <path d="M8.05076,16.85368c-0.2092,0.83328 -0.41954,1.70643 -0.63789,2.56055c-0.21526,0.84158 -0.40443,1.69586 -0.71754,2.46947c-0.5191,1.28156 -1.17851,2.51947 -2.04357,3.52145c-0.57461,0.66698 -0.45238,0.40055 -0.62553,0.36476c-0.13195,-0.02749 -0.14362,-0.15678 -0.16949,-0.34452c-0.14076,-1.0186 -0.04486,-2.19519 0.00767,-3.3396c0.05951,-1.30361 0.3336,-2.38776 0.58811,-3.47086c0.48454,-2.06348 0.94643,-4.08709 1.4352,-6.16372c0.03273,-0.1382 0.12016,-0.36657 0.08995,-0.44526c-0.22156,-0.57697 -0.36541,-1.09488 -0.42858,-1.70054c-0.0729,-0.69553 -0.01694,-1.34409 0.13939,-1.94311c0.27603,-1.05787 0.91278,-1.99552 1.89388,-2.33822c0.6237,-0.21644 1.31493,-0.11856 1.73447,0.13231c0.43236,0.25812 0.72876,0.66638 0.86723,1.24516c0.14751,0.61563 0.0388,1.35119 -0.07988,1.8919c-0.26711,1.21827 -0.61787,2.13311 -0.93693,3.30925c-0.15816,0.58346 -0.33703,1.18248 -0.1894,1.81185c0.13584,0.57817 0.43682,0.97646 0.84743,1.27506c0.42538,0.30993 0.92926,0.4797 1.6246,0.45538c1.22772,-0.04289 2.08111,-0.82799 2.6516,-1.56823c0.91209,-1.18444 1.46484,-2.78363 1.6745,-4.68611c0.06752,-0.61337 0.11707,-1.31841 0.06969,-2.01409c-0.0872,-1.28382 -0.48901,-2.31617 -1.12633,-3.11667c-0.60642,-0.76244 -1.46633,-1.36916 -2.51186,-1.71066c-1.03706,-0.33863 -2.47272,-0.4513 -3.74794,-0.23305c-2.31709,0.39693 -3.95164,1.71413 -4.91421,3.53278c-0.50434,0.95184 -0.83725,2.04732 -0.83725,3.40999c0,1.05077 0.25932,1.86502 0.67795,2.49983c0.13264,0.20133 0.3281,0.36717 0.45845,0.5972c0.18459,0.32594 -0.0285,0.81123 -0.11982,1.16405c-0.10975,0.42502 -0.12142,1.01211 -0.61787,1.02223c-0.20531,0.00362 -0.4636,-0.14666 -0.63801,-0.24317c-1.30451,-0.72121 -2.09724,-2.03312 -2.42214,-3.73427c-0.19741,-1.03355 -0.19707,-2.23929 0,-3.23826c0.19043,-0.96619 0.54485,-1.85792 0.93704,-2.58094c0.81425,-1.50268 2.00695,-2.70419 3.45886,-3.56254c1.11614,-0.66049 2.37545,-1.12297 3.90724,-1.3459c0.50846,-0.07446 1.03443,-0.10497 1.60503,-0.13171c1.66786,-0.07869 3.18455,0.29921 4.3261,0.80941c1.20518,0.53875 2.1666,1.25649 2.98016,2.1458c0.83748,0.91484 1.44756,1.97951 1.83437,3.30925c0.20119,0.69191 0.39745,1.43229 0.39745,2.28702c0,0.85775 -0.18127,1.61294 -0.30785,2.36813c-0.47401,2.82819 -1.81904,5.14089 -3.83766,6.45749c-0.48958,0.31884 -1.08181,0.61337 -1.75438,0.80941c-0.66708,0.19439 -1.42788,0.33984 -2.24281,0.2832c-0.79159,-0.05422 -1.43875,-0.26945 -1.98349,-0.57697c-0.54016,-0.30525 -0.99415,-0.67892 -1.31596,-1.24455z"></path>
</svg>