<svg id="search" xmlns="http://www.w3.org/2000/svg"
      viewBox="0 0 18 18">
    <title>MAGNIFYING GLASS</title>
    <path d="M17.79993,16.14986c0,0.91136 -0.73872,1.64979 -1.64989,1.64979c-0.4557,0 -0.86826,-0.18472 -1.16684,-0.48332l-4.8357,-4.83579c-0.98236,0.58059 -2.12402,0.91907 -3.34751,0.91907c-3.64506,0 -6.60004,-2.95461 -6.60004,-6.59991c0,-3.64485 2.95498,-6.60007 6.60004,-6.60007c3.64506,0 6.59992,2.95521 6.59992,6.60007c0,1.22356 -0.33875,2.36511 -0.91896,3.34731l4.83582,4.83579c0.29858,0.2986 0.48317,0.71109 0.48317,1.16707zM6.79998,1.84941c-2.73388,0 -4.95003,2.21618 -4.95003,4.95028c0,2.73394 2.21615,4.95012 4.95003,4.95012c2.73376,0 4.94991,-2.21618 4.94991,-4.95012c0,-2.73409 -2.21615,-4.95028 -4.94991,-4.95028z"></path>
</svg>