<svg id="twitter"
     xmlns="http://www.w3.org/2000/svg"
     viewBox="0 0 26 22">
    <title>twitter</title>
    <path d="M17.5126,0.60096c2.03442,-0.0364 3.11714,0.7052 4.15134,1.64752c0.87788,-0.07507 2.01874,-0.56564 2.69073,-0.90714c0.21778,-0.11872 0.43568,-0.23849 0.65334,-0.35705c-0.38372,1.03703 -0.9042,1.84886 -1.70403,2.46525c-0.17761,0.13639 -0.35397,0.32186 -0.57655,0.40886c0,0.00362 0,0.00831 0,0.01254c1.13972,-0.01133 2.07973,-0.52576 2.9726,-0.80473c0,0.00423 0,0.00831 0,0.01314c-0.46898,0.74507 -1.10378,1.50147 -1.78104,2.04385c-0.27328,0.21689 -0.54668,0.43393 -0.81997,0.65082c0.01488,1.2071 -0.01785,2.35861 -0.24353,3.37314c-1.31161,5.89487 -4.78706,9.89723 -10.2887,11.61151c-1.97548,0.61578 -5.16804,0.86847 -7.43145,0.30646c-1.12244,-0.27836 -2.13627,-0.59313 -3.08784,-1.00863c-0.52849,-0.23124 -1.01807,-0.48151 -1.48624,-0.76712c-0.15381,-0.09349 -0.3075,-0.18714 -0.46131,-0.28063c0.51052,0.01541 1.10779,0.15617 1.6785,0.06374c0.51636,-0.08352 1.02276,-0.06147 1.49906,-0.16569c1.18813,-0.26114 2.24304,-0.60566 3.15193,-1.13732c0.4406,-0.25797 1.10916,-0.5602 1.42227,-0.93221c-0.59006,0.01012 -1.12484,-0.12687 -1.56315,-0.28123c-1.69899,-0.59962 -2.68787,-1.70296 -3.33138,-3.36c0.51487,0.05664 1.99791,0.19076 2.34478,-0.10195c-0.64819,-0.0358 -1.27144,-0.41128 -1.71684,-0.68964c-1.36677,-0.85533 -2.48131,-2.28929 -2.47295,-4.49656c0.17933,0.08534 0.35877,0.17052 0.5381,0.2551c0.34332,0.14485 0.69237,0.22233 1.10195,0.30706c0.17303,0.03565 0.51888,0.13699 0.71754,0.06313c-0.00858,0 -0.01717,0 -0.02563,0c-0.26447,-0.30691 -0.69523,-0.51262 -0.96096,-0.84279c-0.87685,-1.08959 -1.69865,-2.76687 -1.17874,-4.7648c0.13184,-0.50673 0.34092,-0.95366 0.56374,-1.36674c0.00847,0.00423 0.01705,0.00831 0.02563,0.01254c0.10197,0.21402 0.3297,0.37065 0.47401,0.54948c0.44781,0.55491 1.00021,1.0544 1.56315,1.49437c1.91792,1.50026 3.64517,2.42175 6.41922,3.10414c0.7037,0.17354 1.51703,0.30585 2.3576,0.30706c-0.23609,-0.68783 -0.16022,-1.80007 0.02563,-2.46585c0.46749,-1.6732 1.48281,-2.87894 2.9726,-3.52508c0.35614,-0.15497 0.75119,-0.26764 1.16592,-0.35826c0.21355,-0.02553 0.42709,-0.0512 0.64064,-0.07627z"></path>
</svg>